<?xml version="1.0" encoding="utf-8"?>
<!-- Generator: Adobe Illustrator 15.1.0, SVG Export Plug-In  -->
<!DOCTYPE svg PUBLIC "-//W3C//DTD SVG 1.1//EN" "http://www.w3.org/Graphics/SVG/1.1/DTD/svg11.dtd" [
	<!ENTITY ns_flows "http://ns.adobe.com/Flows/1.0/">
]>
<svg version="1.1"
	 xmlns="http://www.w3.org/2000/svg" xmlns:xlink="http://www.w3.org/1999/xlink" xmlns:a="http://ns.adobe.com/AdobeSVGViewerExtensions/3.0/"
	 preserveAspectRatio="xMinYMin slice" viewBox="-79 0 1920 1080"
	 overflow="visible" enable-background="new -79 0 1920 1080" xml:space="preserve">
<defs>
</defs>
<rect fill="#FF1D25" width="69" height="117"/>
<path fill="#FFFFFF" d="M21.064,95.805l-0.408-2.572l-0.408-2.714l-0.408,2.714l-0.477,2.572H21.064z M19.16,97.448l-0.544,2.858
	h-2.04l2.516-11.859h2.448l2.244,11.859h-1.972l-0.544-2.858H19.16z"/>
<path fill="#FFFFFF" d="M28.614,95.003L28.614,95.003v-0.489l-0.14-0.418l-0.209-0.349l-0.21-0.28l-0.209-0.069h-0.14l-0.28,0.069
	l-0.28,0.141l-0.209,0.279l-0.14,0.279l-0.139,0.418l-0.07,0.419l-0.07,1.046l0.07,0.558l0.07,0.489l0.069,0.488l0.14,0.349
	l0.14,0.279l0.209,0.209l0.21,0.14l0.209,0.07l0.28-0.07l0.209-0.14l0.21-0.279l0.209-0.418l0.069-0.209v-0.28V95.003L28.614,95.003
	z M30.711,88.234v9.559l0.07,2.373h-1.817l-0.14-0.977l-0.279,0.488l-0.419,0.349l-0.49,0.21l-0.279,0.069h-0.279h-0.35
	l-0.279-0.069l-0.28-0.07l-0.28-0.14l-0.419-0.418l-0.349-0.559l-0.28-0.628l-0.209-0.697l-0.14-0.837l-0.07-0.907l0.07-1.046
	l0.14-0.837l0.279-0.768l0.349-0.628l0.419-0.489l0.42-0.279l0.489-0.209l0.559-0.07l0.489,0.07l0.419,0.14l0.28,0.279l0.209,0.349
	h0.069v-4.256H30.711L30.711,88.234z"/>
<path fill="#FFFFFF" d="M34.949,98.695L34.949,98.695l0.271-0.07l0.203-0.14l0.202-0.281l0.068-0.42l0.203-0.84v-0.98v-0.91
	l-0.067-0.49l-0.135-0.42l-0.135-0.351l-0.135-0.35l-0.203-0.14l-0.338-0.07l-0.27,0.07l-0.203,0.14l-0.203,0.35l-0.135,0.351
	l-0.067,0.42l-0.068,0.49l-0.068,0.91l0.068,1.05l0.068,0.421l0.067,0.42l0.135,0.35l0.203,0.28l0.203,0.14L34.949,98.695z
	 M34.881,100.306L34.881,100.306l-0.676-0.07l-0.54-0.21l-0.541-0.35l-0.473-0.49l-0.338-0.63l-0.271-0.7l-0.135-0.911l-0.068-0.981
	l0.068-1.05l0.203-0.91l0.27-0.771l0.405-0.56l0.473-0.49l0.541-0.35l0.541-0.14l0.608-0.07l0.676,0.07l0.608,0.21l0.473,0.35
	l0.473,0.491l0.337,0.63l0.271,0.77l0.135,0.84l0.068,0.98l-0.068,0.631l-0.068,0.56l-0.067,0.49l-0.135,0.42l-0.135,0.421
	l-0.202,0.35l-0.203,0.35l-0.203,0.281l-0.473,0.42l-0.54,0.28l-0.473,0.14h-0.473L34.881,100.306L34.881,100.306z"/>
<path fill="#FFFFFF" d="M41.567,97.166L41.567,97.166v0.349l0.067,0.209l0.135,0.418l0.27,0.279l0.203,0.14l0.203,0.07l0.27-0.07
	l0.271-0.14l0.135-0.209l0.203-0.349l0.067-0.349l0.135-0.489V95.91v-0.977l-0.135-0.488l-0.067-0.35l-0.203-0.279l-0.203-0.209
	l-0.203-0.14l-0.27-0.069l-0.27,0.069l-0.27,0.21l-0.135,0.279l-0.135,0.349l-0.067,0.558V97.166z M39.541,88.234h2.027v4.396
	l0.338-0.418l0.405-0.349l0.406-0.14l0.54-0.07h0.338l0.203,0.07l0.473,0.209l0.406,0.419l0.338,0.488l0.27,0.559l0.135,0.767
	l0.135,0.768l0.068,0.837l-0.068,1.047l-0.135,0.907l-0.27,0.767l-0.338,0.697l-0.338,0.489L44,100.026l-0.473,0.209l-0.541,0.07
	l-0.54-0.07l-0.406-0.139l-0.338-0.419l-0.338-0.489h-0.067l-0.136,0.978h-1.689l0.067-2.373L39.541,88.234L39.541,88.234z"/>
<path fill="#FFFFFF" d="M51.085,95.235L51.085,95.235l-0.07-0.834l-0.07-0.347l-0.141-0.278l-0.139-0.278l-0.14-0.139l-0.21-0.139
	h-0.28h-0.209l-0.279,0.139l-0.14,0.208l-0.209,0.278l-0.14,0.694l-0.14,0.695H51.085L51.085,95.235z M48.919,96.693L48.919,96.693
	l0.07,0.487l0.14,0.417l0.14,0.347l0.209,0.278l0.28,0.208l0.279,0.139l0.35,0.069l0.419,0.069l0.419-0.069l0.419-0.069l0.699-0.208
	l0.28,1.528l-0.419,0.139l-0.559,0.139l-0.629,0.069l-0.629,0.069l-0.768-0.069l-0.699-0.208l-0.628-0.347l-0.489-0.486
	l-0.419-0.625l-0.28-0.695l-0.14-0.833l-0.07-0.904l0.07-0.972l0.209-0.903l0.28-0.765l0.419-0.625l0.489-0.556l0.559-0.347
	l0.628-0.209l0.628-0.139l0.629,0.07l0.629,0.208l0.419,0.348l0.419,0.486l0.349,0.556l0.21,0.626l0.14,0.764l0.07,0.903
	l-0.07,0.694v0.417L48.919,96.693L48.919,96.693z"/>
<polygon fill="#FFFFFF" points="39.473,49.69 53.042,49.69 53.042,82.304 "/>
<polygon fill="#FFFFFF" points="29.72,49.69 16.152,49.69 16.152,82.304 "/>
<polygon fill="#FFFFFF" points="34.638,61.55 43.29,82.304 37.593,82.304 34.99,75.671 28.661,75.671 "/>
<path fill="#FFFFFF" d="M54.949,50.89h0.142l0.212-0.071l0.071-0.07l0.07-0.07v-0.071l-0.07-0.141h-0.142l-0.141-0.071l-0.142,0.071
	V50.89L54.949,50.89z M54.949,51.667h-0.282v-1.412h0.424h0.283l0.212,0.07l0.07,0.142v0.212v0.07l-0.07,0.142l-0.142,0.07
	l0.142,0.142l0.07,0.211l0.071,0.353h-0.283l-0.07-0.353l-0.071-0.141l-0.212-0.071h-0.142V51.667z M55.162,49.901L55.162,49.901
	h-0.212l-0.141,0.071l-0.353,0.211l-0.213,0.353l-0.07,0.423l0.07,0.424l0.213,0.282l0.353,0.282h0.141l0.212,0.071h0.213
	l0.212-0.071l0.282-0.282l0.213-0.282l0.07-0.424l-0.07-0.423l-0.213-0.353l-0.282-0.211l-0.212-0.071H55.162z M55.162,49.69
	L55.162,49.69h0.283l0.212,0.071l0.212,0.141l0.213,0.142l0.141,0.212l0.141,0.212l0.071,0.212v0.282v0.213l-0.071,0.282
	l-0.141,0.211l-0.141,0.212l-0.213,0.141l-0.212,0.071l-0.212,0.07l-0.283,0.071l-0.282-0.072l-0.212-0.07l-0.212-0.071
	l-0.213-0.142l-0.141-0.212l-0.141-0.211l-0.071-0.283v-0.212v-0.281l0.071-0.212l0.141-0.212l0.141-0.212l0.213-0.142l0.212-0.141
	l0.212-0.07H55.162z"/>
</svg>
