<?xml version="1.0" encoding="utf-8"?>
<!-- Generator: Adobe Illustrator 15.1.0, SVG Export Plug-In  -->
<!DOCTYPE svg PUBLIC "-//W3C//DTD SVG 1.1//EN" "http://www.w3.org/Graphics/SVG/1.1/DTD/svg11.dtd" [
	<!ENTITY ns_flows "http://ns.adobe.com/Flows/1.0/">
]>
<svg version="1.1"
	 xmlns="http://www.w3.org/2000/svg" xmlns:xlink="http://www.w3.org/1999/xlink" xmlns:a="http://ns.adobe.com/AdobeSVGViewerExtensions/3.0/"
	 x="0px" y="0px" preserveAspectRatio='X102Y66 meet' viewBox="0 0 102 66" overflow="visible" enable-background="new 0 0 102 66"
	 xml:space="preserve">
<defs>
</defs>
<path fill="#FF0000" d="M23.706,5.665h-5.76V0.48h17.473v5.185h-5.76v29.475h-5.953V5.665z"/>
<path fill="#FF0000" d="M39.454,35.139V0.48h15.937v5.185h-9.984v8.929h7.681v5.185h-7.681v10.177h10.657v5.185H39.454z"/>
<path fill="#FF0000" d="M72.483,12.049V9.361c0-2.928-1.344-4.176-2.88-4.176c-2.4,0-3.168,1.248-3.168,3.84v17.569
	c0,2.592,0.769,3.84,3.168,3.84c2.161,0,2.88-1.248,2.88-3.504v-4.177h5.952v3.984c0,4.896-2.88,8.881-8.833,8.881
	c-6.241,0-9.121-3.984-9.121-8.881V8.881c0-4.896,2.88-8.881,9.121-8.881c5.953,0,8.833,4.32,8.833,9.505v2.544H72.483z"/>
<path fill="#FF0000" d="M83.69,35.139V0.48h5.953v14.113h6.336V0.48h5.953v34.659h-5.953V19.778h-6.336v15.361H83.69z"/>
<path fill="#FFFFFF" d="M9.664,45.891c-0.18-2.232-1.368-2.88-2.376-2.88c-1.44,0-2.231,0.936-2.231,2.556
	c0,4.427,9.071,6.551,9.071,13.606c0,4.284-2.88,6.659-7.055,6.659c-4.14,0-6.515-3.312-6.695-7.199l4.248-0.612
	c0.18,2.628,1.224,3.924,2.664,3.924c1.548,0,2.592-0.828,2.592-2.376c0-5.147-9.071-6.515-9.071-13.966
	c0-4.139,2.52-6.479,6.911-6.479c3.635,0,5.795,2.627,6.191,6.299L9.664,45.891z"/>
<path fill="#FFFFFF" d="M17.512,39.484h4.463v19.618c0,1.908,0.756,2.844,2.376,2.844c1.62,0,2.375-0.936,2.375-2.844V39.484h4.463
	v19.438c0,4.463-2.591,6.911-6.839,6.911s-6.839-2.448-6.839-6.911V39.484z"/>
<path fill="#FFFFFF" d="M53.402,39.484v25.989h-3.887V45.171h-0.072l-4.031,20.301h-2.16L39.22,45.171h-0.072v20.301H35.26V39.484
	h5.867l3.168,15.19h0.072l3.167-15.19H53.402z"/>
<path fill="#FFFFFF" d="M75.398,39.484v25.989H71.51V45.171h-0.072l-4.031,20.301h-2.16l-4.032-20.301h-0.072v20.301h-3.888V39.484
	h5.867l3.167,15.19h0.072l3.167-15.19H75.398z"/>
<path fill="#FFFFFF" d="M80.116,65.473V39.484h4.464v25.989H80.116z"/>
<path fill="#FFFFFF" d="M92.103,43.372h-4.319v-3.888h13.103v3.888h-4.319v22.101h-4.464V43.372z"/>
<path fill="#FF0000" d="M15.369,35.549h-2.037c-4.724-3.233-7.328-4.997-9.553-4.997c-1.197,0-1.722,0.462-1.722,1.176
	c0,0.84,0.651,1.26,1.575,1.26h1.029v2.478H3.947C1.722,35.465,0,34.037,0,31.602c0-2.142,1.596-3.527,3.359-3.527
	c2.394,0,4.157,0.756,9.868,4.829v-4.598h2.142V35.549z"/>
<path fill="#FF0000" d="M4.157,25.944C1.302,25.944,0,24.852,0,22.249s1.302-3.695,4.157-3.695h7.265
	c2.855,0,4.157,1.092,4.157,3.695s-1.302,3.695-4.157,3.695H4.157z M3.506,21.031c-0.987,0-1.449,0.441-1.449,1.218
	s0.462,1.218,1.449,1.218h8.566c0.987,0,1.449-0.441,1.449-1.218s-0.462-1.218-1.449-1.218H3.506z"/>
<path fill="#FF0000" d="M3.359,14.004v2.058H1.953C1.365,14.907,0.735,13.836,0,12.975v-1.323h15.369v2.352H3.359z"/>
<path fill="#FF0000" d="M10.981,6.022h1.029c0.945,0,1.512-0.378,1.512-1.176c0-0.756-0.525-1.239-1.785-1.239h-1.155
	c-1.638,0-2.142,0.63-2.142,2.226H6.383c0-1.533-0.504-2.121-2.31-2.121c-1.428,0-2.016,0.273-2.016,1.05
	c0,0.735,0.357,1.176,1.554,1.176h0.63V8.29H3.527C1.47,8.29,0,7.009,0,4.741c0-2.247,1.869-3.38,3.884-3.38
	c1.764,0,2.75,0.294,3.485,1.638C8.167,1.466,9.07,1.13,11.128,1.13c3.023,0,4.451,1.197,4.451,3.779
	c0,2.163-1.092,3.464-3.695,3.464h-0.903V6.022z"/>
</svg>
