<?xml version="1.0" encoding="utf-8"?>
<!-- Generator: Adobe Illustrator 15.1.0, SVG Export Plug-In . SVG Version: 6.00 Build 0)  -->
<!DOCTYPE svg PUBLIC "-//W3C//DTD SVG 1.1//EN" "http://www.w3.org/Graphics/SVG/1.1/DTD/svg11.dtd">
<svg version="1.1" id="Layer_1" xmlns="http://www.w3.org/2000/svg" xmlns:xlink="http://www.w3.org/1999/xlink" x="0px" y="0px"
	 width="75px" height="126px" viewBox="0 0 75 126" enable-background="new 0 0 75 126" xml:space="preserve">
<path fill="#FF1716" d="M46.068,100.715c-0.429,0-0.79,0.465-0.914,0.963c-0.041,0.156-0.081,0.398-0.081,0.572v2.523
	c0,0.224,0.04,0.438,0.085,0.574c0.229,0.763,0.617,0.95,0.92,0.95c0.874,0,1.23-1.103,1.23-2.87
	C47.309,101.824,46.932,100.715,46.068,100.715z"/>
<path fill="#FF1716" d="M38.157,100.533c-0.956,0-1.157,1.659-1.157,2.932c0,1.54,0.255,2.963,1.175,2.963h0.02
	c0.859,0,1.079-1.618,1.079-2.963C39.274,102.192,39.055,100.533,38.157,100.533z"/>
<path fill="#FF1716" d="M30.25,100.713c-0.897,0-1.234,1.305-1.234,2.828c0,1.756,0.479,2.757,1.203,2.757
	c0.339,0,0.726-0.174,0.938-0.907c0.048-0.145,0.076-0.346,0.076-0.575v-2.39c0-0.164,0-0.361-0.034-0.541
	C31.112,101.271,30.779,100.713,30.25,100.713z"/>
<path fill="#FF1716" d="M0,0.166v125.668h75V0.166H0z M57.057,54.361V88.83L42.609,54.361H57.057z M46.725,88.828h-6.036
	l-2.757-6.932h-6.742l6.326-14.835L46.725,88.828z M17.96,54.361h14.464L17.96,88.83V54.361z M24.009,108.006l-0.583-3.001h-2.34
	l-0.595,3.001h-2.206l2.747-12.488h2.697l2.493,12.488H24.009z M31.615,108.008l-0.13-1.042h-0.046
	c-0.327,0.641-1.041,1.192-1.889,1.192c-1.869,0-2.796-2.057-2.796-4.653c0-3.159,1.386-4.695,2.886-4.695
	c0.782,0,1.299,0.381,1.554,0.936h0.038v-4.56h2.264v-0.002v0.002v10.23c0,0.816,0.04,1.809,0.074,2.592H31.615z M38.172,108.156
	h-0.021c-2.075,0-3.385-1.671-3.385-4.653c0-3.253,1.68-4.695,3.435-4.695c2.061,0,3.35,1.747,3.35,4.647
	C41.551,107.18,39.531,108.156,38.172,108.156z M46.639,108.156c-0.794,0-1.318-0.351-1.791-1.234h-0.046l-0.124,1.084h-1.937
	c0.032-0.755,0.075-1.773,0.075-2.59V95.184h-0.002h0.002h2.257v4.713h0.036c0.446-0.693,1.039-1.091,1.9-1.091
	c1.703,0,2.56,1.931,2.56,4.446C49.569,106.447,48.289,108.156,46.639,108.156z M56.99,104.223l-4.291-0.016
	c0.025,1.638,0.889,2.172,1.963,2.172c0.684,0,1.266-0.146,1.697-0.314l0.309,1.619c-0.602,0.26-1.529,0.42-2.417,0.42
	c-2.428,0-3.746-1.646-3.746-4.467c0-3.029,1.532-4.842,3.538-4.842c1.941,0,3.017,1.603,3.017,4.229
	C57.06,103.621,57.031,103.956,56.99,104.223z M60.004,57.724c-0.934,0-1.689-0.746-1.689-1.69c0-0.929,0.756-1.673,1.689-1.673
	h0.008c0.926,0,1.664,0.744,1.664,1.673C61.676,56.978,60.938,57.724,60.004,57.724z"/>
<path fill="#FF1716" d="M53.9,100.447c-0.822,0-1.17,1.203-1.193,2.17h2.271C54.986,101.343,54.619,100.447,53.9,100.447z"/>
<path fill="#FF1716" d="M22.335,97.694h-0.046c-0.138,0.846-0.325,2.101-0.463,2.849l-0.493,2.699h1.877v-0.002l-0.457-2.703
	C22.62,99.753,22.457,98.536,22.335,97.694z"/>
<path fill="#FF1716" d="M59.918,55.35c-0.102,0-0.168,0-0.218,0.006v0.606h0.202c0.24,0,0.446-0.082,0.446-0.299
	C60.349,55.498,60.229,55.35,59.918,55.35z"/>
<path fill="#FF1716" d="M60.012,54.646h-0.008c-0.74,0-1.337,0.623-1.337,1.395c0,0.776,0.597,1.396,1.345,1.396
	c0.738,0.008,1.33-0.622,1.33-1.396C61.342,55.269,60.75,54.646,60.012,54.646z M60.406,57.012
	c-0.043-0.056-0.082-0.228-0.123-0.477c-0.038-0.222-0.162-0.315-0.391-0.315h-0.196v0.792h0.002h-0.002h-0.337v-1.865
	c0.158-0.028,0.312-0.054,0.562-0.054c0.297,0,0.484,0.058,0.608,0.154c0.104,0.076,0.161,0.208,0.161,0.381
	c0,0.241-0.157,0.399-0.363,0.451v0.018c0.164,0.03,0.27,0.178,0.304,0.455c0.048,0.292,0.086,0.405,0.118,0.461H60.406z"/>
</svg>
