<?xml version="1.0" encoding="utf-8"?>
<!-- Generator: Adobe Illustrator 16.0.0, SVG Export Plug-In . SVG Version: 6.00 Build 0)  -->
<!DOCTYPE svg PUBLIC "-//W3C//DTD SVG 1.1//EN" "http://www.w3.org/Graphics/SVG/1.1/DTD/svg11.dtd">
<svg version="1.1" id="Layer_1" xmlns="http://www.w3.org/2000/svg" xmlns:xlink="http://www.w3.org/1999/xlink" x="0px" y="0px"
	 width="184.788px" height="127.403px" viewBox="0 0 184.788 127.403" enable-background="new 0 0 184.788 127.403"
	 xml:space="preserve">
<path fill-opacity="0.2" d="M73.481,0l2.444,1.63c-12.678,7.788-19.83,19.378-21.459,34.771
	c24.176,7.154,36.265,21.596,36.265,43.328c0,13.403-4.438,24.699-13.311,33.888c-8.875,9.191-19.742,13.786-32.598,13.786
	c-13.04,0-23.769-4.618-32.191-13.854C4.21,104.313,0,92.497,0,78.1C0,59.99,6.996,43.328,20.985,28.116
	C34.975,12.904,52.473,3.532,73.481,0z M167.538,0l2.445,1.63c-12.679,7.788-19.83,19.378-21.46,34.771
	c24.176,7.154,36.266,21.596,36.266,43.328c0,13.403-4.437,24.699-13.312,33.888c-8.875,9.191-19.741,13.786-32.598,13.786
	c-13.039,0-23.769-4.618-32.189-13.854c-8.422-9.236-12.632-21.052-12.632-35.449c0-18.109,6.995-34.772,20.985-49.983
	C129.032,12.904,146.529,3.532,167.538,0z"/>
</svg>
