<?xml version="1.0" encoding="utf-8"?>
<!-- Generator: Adobe Illustrator 15.1.0, SVG Export Plug-In  -->
<!DOCTYPE svg PUBLIC "-//W3C//DTD SVG 1.1//EN" "http://www.w3.org/Graphics/SVG/1.1/DTD/svg11.dtd" [
	<!ENTITY ns_flows "http://ns.adobe.com/Flows/1.0/">
]>
<svg version="1.1"
	 xmlns="http://www.w3.org/2000/svg" xmlns:xlink="http://www.w3.org/1999/xlink" xmlns:a="http://ns.adobe.com/AdobeSVGViewerExtensions/3.0/"
	 x="0px" y="0px" width="1036px" height="883px" viewBox="-0.7 -0.9 1036 883"
	 overflow="visible" enable-background="new -0.7 -0.9 1036 883" xml:space="preserve">
<defs>
</defs>
<radialGradient id="SVGID_1_" cx="485.6304" cy="442.4585" r="99.6909" gradientTransform="matrix(5.1673 0.3419 -0.2908 4.3959 -1863.3167 -1670.1257)" gradientUnits="userSpaceOnUse">
	<stop  offset="0" style="stop-color:#FFFFFF"/>
	<stop  offset="1" style="stop-color:#C7C7C7"/>
</radialGradient>
<polygon fill="url(#SVGID_1_)" points="520.3,397 587,5.4 528.4,398 666.3,21.5 536.2,400.2 742,47.9 543.5,403.3 812.2,84 
	550.1,407.4 875.1,128.9 556,412.2 929.2,181.4 560.9,417.8 973.2,240.4 564.8,424 1005.9,304.3 567.5,430.6 1026.7,371.5 
	568.9,437.4 1034.8,440.5 569.1,444.3 1030.3,509.5 568,451.2 1013.1,576.8 565.7,457.7 983.7,640.7 562.1,463.9 942.8,699.7 
	557.5,469.5 891.4,752.4 551.9,474.4 830.9,797.4 545.4,478.5 762.6,833.6 538.3,481.6 688.3,860.1 530.6,483.8 609.8,876.3 
	522.6,484.9 529,881.8 514.5,484.9 447.9,876.5 506.5,483.8 368.5,860.4 498.7,481.7 292.8,834 491.4,478.5 222.6,797.9 
	484.7,474.5 159.7,753 478.8,469.6 105.6,700.4 473.9,464 61.6,641.4 470.1,457.8 28.9,577.6 467.4,451.2 8.2,510.3 465.9,444.4 
	0,441.3 465.7,437.5 4.6,372.3 466.8,430.7 21.8,305 469.2,424.1 51.2,241.1 472.7,417.9 92,182.1 477.3,412.3 143.4,129.4 
	482.9,407.4 203.9,84.4 489.4,403.3 272.2,48.2 496.5,400.2 346.5,21.7 504.2,398 425.1,5.5 512.2,397 505.9,0 "/>
<radialGradient id="SVGID_2_" cx="485.6299" cy="442.4482" r="99.6914" gradientTransform="matrix(5.1786 -5.800000e-03 5.000000e-03 4.4055 -1999.6777 -1505.4771)" gradientUnits="userSpaceOnUse">
	<stop  offset="0" style="stop-color:#FFFFFF"/>
	<stop  offset="1" style="stop-color:#E1E1E1"/>
</radialGradient>
<polygon fill="url(#SVGID_2_)" points="517.4,396.9 557.6,1.7 525.5,397.4 637.8,12.4 533.4,399 715.1,33.7 540.9,401.6 787.6,65 
	547.8,405.2 853.4,105.5 554,409.7 910.9,154.4 559.3,415 958.7,210.2 563.5,420.9 995.7,271.8 566.7,427.2 1020.8,337.5 568.6,434 
	1033.6,405.8 569.2,440.9 1033.7,474.9 568.6,447.7 1021.1,543.2 566.7,454.5 996,609 563.6,460.9 959.2,670.6 559.3,466.8 
	911.5,726.6 554.1,472 854.1,775.5 547.9,476.5 788.4,816.2 541,480.1 716,847.7 533.5,482.8 638.8,869.2 525.6,484.4 558.5,880.1 
	517.5,485 477.3,880.1 509.4,484.4 397,869.4 501.5,482.8 319.7,848.1 493.9,480.2 247.3,816.8 487,476.6 181.5,776.3 480.8,472.1 
	124,727.5 475.5,466.9 76.1,671.6 471.3,461 39.2,610 468.2,454.6 14,544.3 466.3,447.9 1.2,476.1 465.6,441 1.1,406.9 466.3,434.1 
	13.8,338.6 468.1,427.4 38.8,272.9 471.3,421 75.6,211.2 475.5,415.1 123.3,155.2 480.8,409.8 180.7,106.3 486.9,405.3 246.4,65.6 
	493.9,401.7 318.8,34.1 501.4,399 396,12.7 509.3,397.4 476.3,1.8 "/>
<radialGradient id="SVGID_3_" cx="485.8193" cy="442.5146" r="99.6919" gradientTransform="matrix(5.1746 -0.2023 0.1721 4.4021 -2072.6694 -1408.8005)" gradientUnits="userSpaceOnUse">
	<stop  offset="0" style="stop-color:#FFFFFF"/>
	<stop  offset="1" style="stop-color:#B0B0B0"/>
</radialGradient>
<polygon fill="url(#SVGID_3_)" points="515.7,396.9 540.9,0.5 523.8,397.1 621.5,8.1 531.8,398.4 699.5,26.5 539.4,400.8 773.1,55 
	546.4,404.1 840.4,93 552.8,408.4 899.7,139.6 558.3,413.4 949.6,193.7 562.7,419.1 988.9,253.8 566.1,425.4 1016.6,318.5 
	568.3,432 1031.9,386.2 569.2,438.9 1034.6,455.3 568.8,445.8 1024.6,524 567.2,452.6 1002.1,590.7 564.3,459.1 967.6,653.7 
	560.3,465.2 922.1,711.4 555.2,470.6 866.6,762.5 549.2,475.3 802.5,805.7 542.4,479.2 731.3,839.9 535,482.2 655,864.2 
	527.2,484.1 575.2,878.2 519.1,484.9 494,881.4 511,484.7 413.4,873.7 503.1,483.4 335.3,855.4 495.5,481.1 261.7,826.8 
	488.4,477.7 194.4,788.8 482,473.5 135.1,742.2 476.6,468.4 85.2,688.2 472.1,462.7 45.9,628.1 468.7,456.4 18.3,563.3 466.6,449.8 
	2.9,495.6 465.7,442.9 0.2,426.5 466,436 10.2,357.8 467.7,429.2 32.8,291.1 470.5,422.7 67.2,228.2 474.5,416.7 112.8,170.4 
	479.6,411.2 168.3,119.3 485.6,406.5 232.4,76.1 492.4,402.6 303.5,42 499.8,399.7 379.9,17.6 507.6,397.8 459.7,3.6 "/>
</svg>
