<?xml version="1.0" encoding="utf-8"?>
<!-- Generator: Adobe Illustrator 16.0.0, SVG Export Plug-In . SVG Version: 6.00 Build 0)  -->
<!DOCTYPE svg PUBLIC "-//W3C//DTD SVG 1.1//EN" "http://www.w3.org/Graphics/SVG/1.1/DTD/svg11.dtd">
<svg version="1.1" id="Layer_1" xmlns="http://www.w3.org/2000/svg" xmlns:xlink="http://www.w3.org/1999/xlink" x="0px" y="0px"
	 width="900px" height="400px" viewBox="0 0 900 400" enable-background="new 0 0 900 400" xml:space="preserve">
<path d="M23.654,121.086h26.66V56.788H26.791v-20.78c14.114-2.744,23.131-6.273,32.541-12.153h24.7v97.231h22.348v27.052H23.654
	V121.086z"/>
<path d="M107.947,85.408c0-42.539,18.819-63.906,46.264-63.906c27.444,0,46.263,21.563,46.263,63.906
	c0,42.539-18.819,65.083-46.263,65.083C126.766,150.491,107.947,127.947,107.947,85.408z M168.716,85.408
	c0-32.933-6.665-38.03-14.506-38.03c-7.841,0-14.506,5.097-14.506,38.03s6.665,39.206,14.506,39.206
	C162.051,124.614,168.716,118.341,168.716,85.408z"/>
<path d="M226.813,19.333c-1.607-1.769-4.823-3.537-7.717-3.537c-4.984,0-8.922,3.457-9.405,13.746
	c2.492-3.295,6.833-5.064,9.565-5.064c8.682,0,15.434,4.824,15.434,15.755c0,10.933-8.039,17.364-17.685,17.364
	c-9.807,0-19.935-7.074-19.935-25.562S207.2,4.703,218.132,4.703c7.235,0,12.54,3.055,15.916,6.431L226.813,19.333z M222.151,40.233
	c0-4.903-2.733-6.109-5.627-6.109c-2.331,0-4.662,1.206-6.511,4.341c1.126,7.154,4.181,8.842,6.672,8.842
	C219.579,47.307,222.151,45.619,222.151,40.233z"/>
<g>
	<path d="M369.637,86.494c0-17.285,14.062-31.347,31.347-31.347V28.142h-27.017c0.002,0.142,0.011,0.281,0.011,0.423
		c0,17.285-14.062,31.347-31.347,31.347s-31.347-14.062-31.347-31.347c0-0.142,0.009-0.282,0.011-0.423h-27.017v27.008
		c0.029,0,0.057-0.002,0.086-0.002c17.285,0,31.347,14.062,31.347,31.347s-14.062,31.347-31.347,31.347
		c-0.029,0-0.057-0.002-0.086-0.002v27.01h27.016c0.207-17.11,14.181-30.966,31.336-30.966c17.157,0,31.131,13.856,31.338,30.966
		h27.016v-27.008C383.7,117.841,369.637,103.779,369.637,86.494z"/>
	<path fill="#231F20" d="M362.957,28.142c-0.229-11.023-9.249-19.924-20.325-19.924s-20.097,8.901-20.326,19.924
		c-0.003,0.142-0.021,0.28-0.021,0.423c0,11.219,9.128,20.347,20.347,20.347s20.347-9.127,20.347-20.347
		C362.979,28.422,362.96,28.284,362.957,28.142z"/>
	<path fill="#231F20" d="M362.959,144.849c-0.207-11.043-9.238-19.966-20.328-19.966c-11.089,0-20.12,8.923-20.327,19.966
		c-0.002,0.128-0.02,0.253-0.02,0.383c0,11.22,9.127,20.348,20.346,20.348c11.22,0,20.348-9.128,20.348-20.348
		C362.979,145.103,362.961,144.978,362.959,144.849z"/>
	<path fill="#231F20" d="M400.984,66.147c-11.219,0-20.347,9.128-20.347,20.347s9.128,20.347,20.347,20.347
		s20.347-9.127,20.347-20.347S412.204,66.147,400.984,66.147z"/>
	<path fill="#231F20" d="M284.364,66.147c-0.029,0-0.057,0.004-0.086,0.004c-11.18,0.047-20.261,9.152-20.261,20.343
		s9.082,20.295,20.261,20.342c0.029,0,0.057,0.004,0.086,0.004c11.219,0,20.347-9.127,20.347-20.347S295.583,66.147,284.364,66.147z
		"/>
</g>
<g>
	<circle cx="298.519" cy="188.984" r="10.026"/>
	<circle cx="298.519" cy="217.597" r="10.025"/>
	<circle cx="298.519" cy="247.24" r="10.025"/>
	<circle cx="358.13" cy="188.984" r="10.025"/>
	<circle cx="358.13" cy="217.597" r="10.025"/>
	<circle cx="358.13" cy="247.24" r="10.025"/>
	<circle cx="327.35" cy="247.24" r="10.025"/>
	<circle fill="#E60000" cx="327.35" cy="188.984" r="10.025"/>
	<circle fill="#E60000" cx="327.35" cy="216.622" r="10.025"/>
	<circle cx="386.831" cy="188.984" r="10.026"/>
	<circle cx="386.831" cy="217.597" r="10.026"/>
	<circle cx="386.831" cy="247.24" r="10.026"/>
</g>
<ellipse fill="#231F20" cx="637.837" cy="73.862" rx="66.766" ry="64.622"/>
<path fill="#E60000" stroke="#FFFFFF" stroke-width="3" stroke-miterlimit="10" d="M656.554,73.862
	c0,10.004-8.382,18.116-18.715,18.116c-10.337,0-18.716-8.111-18.716-18.116c0-10.003,8.379-18.114,18.716-18.114
	C648.172,55.748,656.554,63.859,656.554,73.862z"/>
<g>
	<path d="M497.985,386.34c-8.448-8.979-14.938-15.92-20.202-15.92c-3.49,0-5.144,1.914-5.144,4.668c0,2.513,1.839,4.431,3.675,6.224
		l-5.633,5.508c-4.286-3.951-6.245-7.544-6.245-13.168c0-7.659,5.02-13.047,12.735-13.047c6.244,0,13.099,5.745,18.487,10.893
		c-0.245-1.914-0.489-4.668-0.489-6.345v-6.344h8.814v27.531H497.985z"/>
	<path d="M475.58,336.424c-1.349,1.197-2.695,3.591-2.695,5.745c0,3.71,2.634,6.645,10.47,7.004
		c-2.51-1.856-3.856-5.087-3.856-7.123c0-6.465,3.673-11.493,11.998-11.493c8.326,0,13.224,5.987,13.224,13.169
		c0,7.302-5.388,14.843-19.469,14.843c-14.079,0-20.814-7.541-20.814-15.68c0-5.388,2.327-9.338,4.898-11.853L475.58,336.424z
		 M491.496,339.896c-3.735,0-4.653,2.036-4.653,4.19c0,1.733,0.918,3.47,3.308,4.848c5.447-0.84,6.733-3.114,6.733-4.971
		C496.884,341.812,495.598,339.896,491.496,339.896z"/>
	<path d="M495.536,329.24v-8.139h-20.079v7.183h-6.49c-0.857-4.309-1.959-7.062-3.795-9.937v-7.541h30.364v-6.822h8.448v25.256
		H495.536z"/>
</g>
<g>
	<path d="M526.716,369.99v16.829h-21.454v-82.434h17.463l1.496,5.611h0.501c4.614-4.147,10.726-7.075,16.962-7.075
		c14.718,0,24.197,12.195,24.197,30.974c0,20.974-12.722,32.924-25.943,32.924c-5.238,0-9.979-2.194-13.97-6.098L526.716,369.99z
		 M534.699,349.748c4.987,0,9.23-3.902,9.23-15.609c0-9.997-2.994-14.145-8.732-14.145c-3.243,0-5.737,1.221-8.481,4.392v22.437
		C529.211,349.017,531.954,349.748,534.699,349.748z"/>
	<path d="M598.564,325.849c-0.499-4.393-3.243-6.342-8.732-6.342c-4.489,0-9.229,1.708-15.715,5.121l-7.484-13.658
		c8.73-5.12,17.712-8.048,27.442-8.048c16.214,0,25.942,8.534,25.942,28.534v33.9h-17.461l-1.497-5.853h-0.499
		c-4.989,4.389-10.479,7.315-17.213,7.315c-11.726,0-18.71-8.779-18.71-18.778C564.638,335.359,574.615,328.285,598.564,325.849z
		 M590.83,350.725c3.494,0,5.49-1.708,7.734-4.147v-8.291c-10.229,1.462-13.471,4.633-13.471,8.047
		C585.094,349.14,587.089,350.725,590.83,350.725z"/>
	<path d="M627.255,320.725h-8.233v-15.607l9.481-0.731l2.495-15.852h17.711v15.852h14.219v16.339h-14.219v20.854
		c0,6.708,3.493,8.899,7.483,8.899c1.996,0,3.991-0.486,5.489-0.974l3.243,15.121c-3.243,0.977-7.859,2.194-14.719,2.194
		c-16.215,0-22.951-9.997-22.951-24.875V320.725z"/>
	<path d="M693.614,302.922c7.485,0,13.971,2.685,18.21,6.829l-9.729,12.927c-2.743-2.194-4.989-2.927-7.233-2.927
		c-7.983,0-12.722,5.853-12.722,15.119c0,9.269,5.237,15.121,11.972,15.121c3.993,0,7.236-1.95,9.979-3.901l8.48,13.17
		c-6.234,5.365-14.467,7.56-20.953,7.56c-17.712,0-31.433-11.707-31.433-31.949C660.187,314.63,675.902,302.922,693.614,302.922z"/>
	<path d="M712.575,280.485h21.453v19.753l-0.998,10.489c4.241-3.657,10.228-7.806,18.71-7.806c13.721,0,19.457,9.756,19.457,24.877
		v37.558h-21.451v-34.873c0-7.806-1.996-9.759-6.238-9.759c-3.991,0-6.236,1.708-9.479,4.635v39.997h-21.453V280.485z"/>
	<path d="M802.135,302.922c18.46,0,27.19,13.169,27.19,29.511c0,3.658-0.498,6.829-0.872,8.292h-35.551
		c1.997,7.803,7.485,10.243,14.471,10.243c4.24,0,8.231-1.22,12.724-3.658l6.983,12.436c-6.734,4.635-15.716,7.074-22.701,7.074
		c-18.211,0-32.18-11.707-32.18-31.949C772.199,315.117,786.918,302.922,802.135,302.922z M811.115,328.043
		c0-5.121-1.996-9.269-8.481-9.269c-4.741,0-8.732,2.562-9.98,9.269H811.115z"/>
	<path d="M835.314,345.356c5.737,4.147,10.852,6.098,15.219,6.098c4.489,0,6.234-1.219,6.234-3.657
		c0-3.169-5.736-4.632-11.975-7.072c-7.233-2.807-15.716-8.049-15.716-18.047c0-11.95,9.98-19.756,24.697-19.756
		c10.228,0,17.463,4.025,22.95,8.048l-9.479,12.439c-4.49-3.171-8.855-5.121-12.722-5.121c-3.618,0-5.49,0.974-5.49,3.413
		c0,3.171,5.49,4.39,11.727,6.584c7.483,2.686,15.965,7.318,15.965,18.292c0,11.463-9.229,20.242-26.692,20.242
		c-7.981,0-17.713-3.413-24.198-8.536L835.314,345.356z"/>
</g>
<g>
	<polygon points="535.572,185.705 535.572,195.962 513.461,209.173 490.728,195.962 490.728,185.705 513.596,197.025 	"/>
	<path d="M513.568,194.246l42.757-21.319l-42.759-18.046l-43.951,18.046l9.593,4.654c-0.218,5.524-0.817,16.299-1.514,19.783
		c-0.576,2.882-3.363,6.988-8.584,12.206c-0.201,0.201-0.454,0.498-0.341,0.773c0.12,0.288,0.544,0.288,0.684,0.288
		c1.349,0,5.024-1.245,6.936-2.518c0.28-0.187,0.535-0.281,0.759-0.281c0.838,0,1.325,1.38,1.796,2.714
		c0.448,1.268,0.87,2.465,1.644,2.852c0.117,0.058,0.236,0.087,0.359,0.087c0.269,0,0.523-0.143,0.773-0.426
		c1.425-1.613,2.502-8.046,1.768-13.922c-0.671-5.36-0.334-14.497,0.183-19.391L513.568,194.246z M512.995,163.868
		c1.972,0,3.577,1.605,3.577,3.578c0,1.974-1.605,3.579-3.577,3.579s-3.578-1.604-3.578-3.579
		C509.417,165.473,511.023,163.868,512.995,163.868z"/>
</g>
<g>
	<polygon points="637.901,185.705 637.901,195.962 615.79,209.174 593.058,195.962 593.058,185.705 615.926,197.025 	"/>
	<path d="M615.899,194.246l42.756-21.319l-42.758-18.046l-43.951,18.046l9.592,4.653c-0.218,5.525-0.817,16.299-1.514,19.783
		c-0.576,2.882-3.363,6.989-8.584,12.205c-0.201,0.201-0.455,0.499-0.341,0.773c0.12,0.289,0.543,0.289,0.684,0.289
		c1.349,0,5.025-1.245,6.937-2.518c0.279-0.187,0.534-0.281,0.759-0.281c0.837,0,1.324,1.38,1.795,2.715
		c0.447,1.268,0.87,2.465,1.644,2.851c0.117,0.058,0.237,0.088,0.359,0.088c0.27,0,0.524-0.143,0.774-0.426
		c1.425-1.613,2.502-8.045,1.767-13.921c-0.67-5.361-0.333-14.498,0.184-19.392L615.899,194.246z M615.324,163.868
		c1.973,0,3.578,1.606,3.578,3.579c0,1.973-1.605,3.579-3.578,3.579c-1.972,0-3.576-1.605-3.576-3.579
		C611.748,165.474,613.353,163.868,615.324,163.868z"/>
</g>
<g>
	<polygon points="535.28,118.146 535.28,128.403 513.169,141.615 490.436,128.403 490.436,118.146 513.305,129.466 	"/>
	<path d="M513.277,126.687l42.756-21.319l-42.758-18.046l-43.951,18.046l9.592,4.653c-0.218,5.524-0.817,16.299-1.514,19.783
		c-0.576,2.882-3.363,6.988-8.583,12.205c-0.202,0.201-0.455,0.499-0.342,0.773c0.12,0.289,0.544,0.289,0.684,0.289
		c1.349,0,5.025-1.245,6.937-2.518c0.279-0.187,0.535-0.28,0.759-0.28c0.837,0,1.324,1.38,1.795,2.714
		c0.448,1.268,0.87,2.464,1.645,2.852c0.116,0.058,0.236,0.087,0.358,0.087c0.27,0,0.524-0.143,0.774-0.426
		c1.425-1.613,2.502-8.046,1.767-13.921c-0.67-5.361-0.333-14.497,0.184-19.392L513.277,126.687z M512.704,96.309
		c1.971,0,3.576,1.605,3.576,3.578c0,1.974-1.605,3.579-3.576,3.579c-1.973,0-3.578-1.605-3.578-3.579
		C509.126,97.915,510.731,96.309,512.704,96.309z"/>
</g>
<g>
	<polygon points="537.989,46.119 537.989,56.376 515.878,69.587 493.145,56.376 493.145,46.119 516.013,57.439 	"/>
	<path d="M515.985,54.66l42.757-21.319l-42.759-18.046l-43.951,18.046l9.593,4.653c-0.218,5.525-0.817,16.299-1.514,19.783
		c-0.576,2.882-3.363,6.988-8.584,12.206c-0.201,0.201-0.454,0.498-0.341,0.772c0.12,0.289,0.544,0.289,0.684,0.289
		c1.349,0,5.024-1.245,6.936-2.518c0.28-0.187,0.535-0.281,0.759-0.281c0.838,0,1.325,1.38,1.796,2.714
		c0.448,1.268,0.87,2.464,1.644,2.852c0.117,0.058,0.236,0.087,0.359,0.087c0.269,0,0.523-0.143,0.773-0.425
		c1.425-1.613,2.502-8.046,1.768-13.922c-0.671-5.36-0.334-14.497,0.183-19.391L515.985,54.66z M515.412,24.282
		c1.972,0,3.577,1.605,3.577,3.578c0,1.974-1.605,3.579-3.577,3.579s-3.578-1.605-3.578-3.579
		C511.834,25.887,513.44,24.282,515.412,24.282z"/>
</g>
<rect x="269.67" y="279.714" transform="matrix(0.9397 -0.342 0.342 0.9397 -90.2318 121.9846)" fill="#FFFFFF" stroke="#000000" stroke-miterlimit="10" width="62.183" height="74.245"/>
<rect x="295.9" y="284.266" transform="matrix(0.9397 -0.342 0.342 0.9397 -90.1996 131.2167)" fill="#FFFFFF" stroke="#000000" stroke-miterlimit="10" width="62.184" height="74.243"/>
<rect x="323.884" y="290.304" transform="matrix(0.9397 -0.342 0.342 0.9397 -90.5737 141.1429)" fill="#FFFFFF" stroke="#000000" stroke-miterlimit="10" width="62.181" height="74.243"/>
<rect x="348.803" y="302.556" transform="matrix(0.9397 -0.342 0.342 0.9397 -93.2602 150.4013)" fill="#FFFFFF" stroke="#000000" stroke-miterlimit="10" width="62.182" height="74.243"/>
<g>
	<circle cx="795.692" cy="135.333" r="2.249"/>
	<circle cx="806.213" cy="135.333" r="2.249"/>
	<path d="M818.407,121.59c-3.089-8.084-12.857-11.863-21.818-8.443c-4.607,1.76-8.448,5.322-10.339,9.792
		c-2.001,3.422-3.181,7.584-3.181,12.072c0,11.621,7.889,21.075,17.586,21.075c8.818,0,16.14-7.806,17.404-17.949
		c3.205,0.144,7.319-1.55,9.939-2.55C836.959,132.167,821.49,129.679,818.407,121.59z M800.655,153.252
		c-8.134,0-14.752-8.183-14.752-18.241c0-1.4,0.14-2.757,0.381-4.066c3.08,2.193,10.87,0.201,13.365-0.452
		c3.63-0.953,6.149-1.154,9.353,1.197c2.211,1.622,3.832,4.353,6.278,5.688C814.338,146.319,808.146,153.252,800.655,153.252z"/>
	<g>
		<path d="M800.565,149.753c-1.372,0-2.661-0.534-3.627-1.504c-0.554-0.555-0.552-1.453,0.002-2.005
			c0.555-0.553,1.452-0.55,2.006,0.003c0.903,0.904,2.523,0.846,3.357-0.13c0.508-0.594,1.405-0.666,1.999-0.156
			c0.595,0.508,0.664,1.404,0.156,1.998C803.485,149.1,802.065,149.753,800.565,149.753z"/>
	</g>
</g>
<g>
	<circle cx="794.86" cy="83.63" r="2.249"/>
	<circle cx="805.381" cy="83.63" r="2.249"/>
	<path d="M817.575,69.887c-3.089-8.084-12.857-11.864-21.817-8.444c-4.607,1.76-8.449,5.322-10.339,9.792
		c-2.002,3.422-3.182,7.584-3.182,12.072c0,11.622,7.89,21.075,17.587,21.075c8.816,0,16.14-7.805,17.405-17.949
		c3.204,0.144,7.317-1.55,9.938-2.549C836.127,80.464,820.658,77.976,817.575,69.887z M799.824,101.549
		c-8.134,0-14.752-8.182-14.752-18.241c0-1.4,0.14-2.757,0.381-4.066c3.08,2.193,10.87,0.202,13.364-0.452
		c3.632-0.953,6.149-1.154,9.354,1.196c2.21,1.622,3.831,4.353,6.278,5.688C813.506,94.616,807.315,101.549,799.824,101.549z"/>
	<g>
		<path d="M799.734,98.049c-1.373,0-2.662-0.534-3.628-1.503c-0.553-0.555-0.552-1.453,0.002-2.005
			c0.555-0.553,1.453-0.55,2.005,0.003c0.905,0.904,2.525,0.845,3.359-0.13c0.508-0.594,1.405-0.666,1.998-0.156
			c0.595,0.508,0.666,1.403,0.156,1.998C802.652,97.396,801.233,98.049,799.734,98.049z"/>
	</g>
</g>
<g>
	<circle cx="797.957" cy="186.895" r="2.248"/>
	<circle cx="808.478" cy="186.895" r="2.248"/>
	<path d="M820.67,173.152c-3.087-8.084-12.856-11.863-21.816-8.443c-4.607,1.759-8.448,5.322-10.339,9.792
		c-2.002,3.422-3.181,7.583-3.181,12.072c0,11.621,7.89,21.075,17.586,21.075c8.818,0,16.14-7.806,17.405-17.949
		c3.203,0.145,7.318-1.55,9.937-2.549C839.224,183.729,823.755,181.24,820.67,173.152z M802.92,204.813
		c-8.134,0-14.752-8.182-14.752-18.241c0-1.4,0.14-2.758,0.382-4.066c3.079,2.194,10.869,0.202,13.364-0.452
		c3.631-0.953,6.149-1.154,9.353,1.197c2.211,1.621,3.832,4.352,6.278,5.688C816.602,197.881,810.411,204.813,802.92,204.813z"/>
	<g>
		<path d="M802.83,201.314c-1.372,0-2.662-0.534-3.627-1.503c-0.554-0.554-0.552-1.453,0.001-2.005
			c0.555-0.553,1.453-0.549,2.007,0.003c0.903,0.904,2.523,0.846,3.357-0.129c0.509-0.594,1.405-0.665,1.998-0.155
			c0.596,0.507,0.665,1.402,0.157,1.998C805.75,200.661,804.33,201.314,802.83,201.314z"/>
	</g>
</g>
<g>
	<circle cx="797.24" cy="238.629" r="2.249"/>
	<circle cx="807.761" cy="238.629" r="2.249"/>
	<path d="M819.953,224.885c-3.087-8.083-12.856-11.862-21.816-8.442c-4.607,1.76-8.449,5.321-10.339,9.792
		c-2.002,3.422-3.181,7.584-3.181,12.071c0,11.621,7.89,21.077,17.585,21.077c8.818,0,16.141-7.806,17.406-17.949
		c3.204,0.144,7.318-1.551,9.938-2.55C838.507,235.462,823.038,232.974,819.953,224.885z M802.202,256.549
		c-8.134,0-14.752-8.183-14.752-18.243c0-1.398,0.141-2.756,0.383-4.067c3.079,2.194,10.869,0.204,13.364-0.45
		c3.631-0.954,6.149-1.155,9.353,1.196c2.211,1.621,3.831,4.352,6.278,5.687C815.885,249.616,809.694,256.549,802.202,256.549z"/>
	<g>
		<path d="M802.113,253.049c-1.372,0-2.662-0.535-3.628-1.503c-0.553-0.555-0.551-1.452,0.002-2.006
			c0.555-0.553,1.453-0.549,2.006,0.002c0.904,0.906,2.524,0.847,3.358-0.129c0.508-0.593,1.405-0.663,1.998-0.154
			c0.596,0.507,0.665,1.403,0.157,1.997C805.032,252.395,803.613,253.049,802.113,253.049z"/>
	</g>
</g>
<g>
	<circle cx="806.914" cy="33.705" r="2.249"/>
	<circle cx="796.393" cy="33.705" r="2.248"/>
	<path d="M774.607,33.959c2.619,1,6.734,2.693,9.938,2.55c1.266,10.143,8.587,17.948,17.405,17.948
		c9.696,0,17.587-9.454,17.587-21.075c0-4.487-1.18-8.649-3.181-12.072c-1.892-4.47-5.732-8.032-10.339-9.792
		c-8.962-3.42-18.729,0.358-21.818,8.443C781.116,28.049,765.646,30.538,774.607,33.959z M787.326,35.749
		c2.445-1.336,4.066-4.067,6.277-5.688c3.203-2.35,5.722-2.149,9.354-1.195c2.494,0.653,10.284,2.645,13.363,0.45
		c0.242,1.31,0.382,2.667,0.382,4.067c0,10.059-6.618,18.241-14.752,18.241C794.459,51.623,788.269,44.69,787.326,35.749z"/>
	<g>
		<path d="M798.146,46.33c-0.508-0.595-0.438-1.49,0.157-1.998c0.593-0.509,1.489-0.439,1.998,0.156
			c0.835,0.975,2.455,1.034,3.358,0.129c0.554-0.553,1.451-0.556,2.006-0.002c0.553,0.552,0.555,1.45,0.002,2.004
			c-0.966,0.971-2.255,1.503-3.627,1.503C800.541,48.123,799.121,47.469,798.146,46.33z"/>
	</g>
</g>
<g>
	<circle cx="843.381" cy="160.574" r="2.248"/>
	<circle cx="853.902" cy="160.574" r="2.248"/>
	<path d="M866.095,146.832c-3.087-8.084-12.856-11.863-21.817-8.443c-4.607,1.759-8.448,5.322-10.339,9.792
		c-2.002,3.423-3.181,7.584-3.181,12.072c0,11.621,7.89,21.075,17.586,21.075c8.818,0,16.139-7.805,17.404-17.949
		c3.205,0.144,7.319-1.55,9.938-2.55C884.648,157.408,869.179,154.92,866.095,146.832z M848.344,178.493
		c-8.135,0-14.752-8.182-14.752-18.241c0-1.4,0.14-2.757,0.382-4.066c3.079,2.193,10.868,0.202,13.364-0.451
		c3.63-0.954,6.15-1.155,9.353,1.196c2.211,1.622,3.832,4.353,6.278,5.689C862.025,171.561,855.835,178.493,848.344,178.493z"/>
	<g>
		<path d="M848.255,174.994c-1.372,0-2.663-0.533-3.628-1.504c-0.554-0.554-0.552-1.453,0.001-2.005
			c0.555-0.552,1.453-0.551,2.007,0.003c0.904,0.905,2.523,0.846,3.357-0.129c0.508-0.595,1.405-0.665,1.998-0.156
			c0.596,0.508,0.666,1.404,0.157,1.998C851.174,174.341,849.754,174.994,848.255,174.994z"/>
	</g>
</g>
<g>
	<circle cx="842.549" cy="108.871" r="2.248"/>
	<circle cx="853.07" cy="108.871" r="2.248"/>
	<path d="M865.264,95.128c-3.089-8.083-12.857-11.862-21.818-8.443c-4.607,1.76-8.448,5.322-10.338,9.792
		c-2.002,3.423-3.182,7.584-3.182,12.072c0,11.621,7.89,21.075,17.586,21.075c8.818,0,16.14-7.805,17.405-17.949
		c3.204,0.144,7.318-1.55,9.938-2.55C883.815,105.705,868.347,103.217,865.264,95.128z M847.512,126.79
		c-8.133,0-14.752-8.182-14.752-18.241c0-1.4,0.14-2.757,0.382-4.066c3.079,2.194,10.87,0.202,13.364-0.452
		c3.631-0.953,6.15-1.154,9.354,1.197c2.21,1.621,3.831,4.352,6.278,5.688C861.194,119.857,855.003,126.79,847.512,126.79z"/>
	<g>
		<path d="M847.422,123.291c-1.372,0-2.661-0.534-3.627-1.504c-0.553-0.555-0.551-1.453,0.002-2.005
			c0.555-0.553,1.453-0.551,2.006,0.003c0.903,0.904,2.524,0.846,3.358-0.13c0.508-0.594,1.404-0.665,1.998-0.156
			c0.595,0.508,0.665,1.403,0.156,1.998C850.342,122.637,848.922,123.291,847.422,123.291z"/>
	</g>
</g>
<g>
	<circle cx="845.646" cy="212.135" r="2.249"/>
	<circle cx="856.167" cy="212.135" r="2.249"/>
	<path d="M868.359,198.394c-3.088-8.084-12.856-11.864-21.818-8.444c-4.605,1.76-8.447,5.323-10.338,9.792
		c-2.002,3.422-3.181,7.584-3.181,12.073c0,11.621,7.89,21.075,17.586,21.075c8.818,0,16.14-7.806,17.405-17.949
		c3.204,0.144,7.318-1.55,9.938-2.55C886.912,208.97,871.442,206.482,868.359,198.394z M850.608,230.056
		c-8.134,0-14.752-8.183-14.752-18.241c0-1.401,0.14-2.758,0.382-4.067c3.079,2.194,10.869,0.202,13.363-0.451
		c3.631-0.953,6.15-1.154,9.354,1.196c2.211,1.622,3.832,4.353,6.278,5.688C864.29,223.123,858.1,230.056,850.608,230.056z"/>
	<g>
		<path d="M850.518,226.556c-1.372,0-2.661-0.534-3.627-1.503c-0.552-0.556-0.551-1.452,0.002-2.005
			c0.555-0.552,1.453-0.55,2.006,0.003c0.903,0.904,2.523,0.846,3.358-0.131c0.509-0.593,1.405-0.663,1.998-0.153
			c0.596,0.506,0.665,1.402,0.157,1.996C853.438,225.902,852.018,226.556,850.518,226.556z"/>
	</g>
</g>
<g>
	<circle cx="844.928" cy="263.87" r="2.249"/>
	<circle cx="855.449" cy="263.87" r="2.249"/>
	<path d="M867.642,250.127c-3.087-8.084-12.855-11.862-21.816-8.442c-4.607,1.759-8.448,5.323-10.339,9.791
		c-2.002,3.424-3.182,7.585-3.182,12.073c0,11.62,7.891,21.075,17.587,21.075c8.818,0,16.14-7.806,17.405-17.95
		c3.203,0.143,7.318-1.55,9.937-2.55C886.195,260.704,870.727,258.216,867.642,250.127z M849.892,281.789
		c-8.134,0-14.752-8.181-14.752-18.24c0-1.399,0.14-2.758,0.382-4.068c3.079,2.194,10.869,0.203,13.363-0.45
		c3.632-0.953,6.15-1.154,9.354,1.195c2.21,1.623,3.831,4.354,6.277,5.688C863.573,274.856,857.383,281.789,849.892,281.789z"/>
	<g>
		<path d="M849.801,278.29c-1.371,0-2.661-0.534-3.627-1.504c-0.553-0.553-0.551-1.451,0.002-2.005
			c0.555-0.554,1.453-0.549,2.006,0.002c0.903,0.906,2.524,0.847,3.358-0.13c0.509-0.593,1.405-0.662,1.998-0.154
			c0.595,0.508,0.666,1.401,0.157,1.997C852.721,277.637,851.301,278.29,849.801,278.29z"/>
	</g>
</g>
<g>
	<circle cx="854.601" cy="58.946" r="2.249"/>
	<circle cx="844.081" cy="58.946" r="2.248"/>
	<path d="M822.297,59.201c2.618,0.999,6.733,2.692,9.937,2.549c1.266,10.143,8.588,17.948,17.405,17.948
		c9.696,0,17.587-9.454,17.587-21.075c0-4.488-1.18-8.649-3.182-12.072c-1.891-4.47-5.731-8.032-10.339-9.792
		c-8.96-3.419-18.729,0.359-21.816,8.444C828.804,53.291,813.335,55.779,822.297,59.201z M835.014,60.99
		c2.447-1.335,4.067-4.067,6.278-5.688c3.203-2.35,5.722-2.149,9.353-1.196c2.495,0.654,10.285,2.645,13.364,0.451
		c0.243,1.31,0.382,2.667,0.382,4.067c0,10.06-6.618,18.241-14.752,18.241C842.147,76.864,835.957,69.932,835.014,60.99z"/>
	<g>
		<path d="M845.835,71.571c-0.508-0.595-0.438-1.489,0.157-1.998c0.593-0.509,1.49-0.438,1.998,0.156
			c0.834,0.976,2.454,1.033,3.358,0.129c0.553-0.553,1.452-0.555,2.006-0.002c0.553,0.552,0.555,1.45,0.002,2.003
			c-0.966,0.971-2.256,1.504-3.628,1.504C848.229,73.364,846.81,72.71,845.835,71.571z"/>
	</g>
</g>
<rect x="23.654" y="252.753" width="181.408" height="48.092"/>
<rect x="51.284" y="276.798" fill="#E60000" width="128.103" height="24.047"/>
<rect x="23.654" y="184.044" width="181.408" height="48.092"/>
<rect x="51.284" y="208.089" fill="#E60000" width="128.103" height="24.047"/>
<rect x="23.654" y="320.67" width="181.408" height="48.092"/>
<rect x="51.284" y="344.715" fill="#E60000" width="128.103" height="24.047"/>
</svg>
