<?xml version="1.0" encoding="utf-8"?>
<!-- Generator: Adobe Illustrator 16.0.0, SVG Export Plug-In . SVG Version: 6.00 Build 0)  -->
<!DOCTYPE svg PUBLIC "-//W3C//DTD SVG 1.1//EN" "http://www.w3.org/Graphics/SVG/1.1/DTD/svg11.dtd">
<svg version="1.1" id="Layer_1" xmlns="http://www.w3.org/2000/svg" xmlns:xlink="http://www.w3.org/1999/xlink" x="0px" y="0px"
	 width="412.207px" height="249.765px" viewBox="0 0 412.207 249.765" enable-background="new 0 0 412.207 249.765"
	 xml:space="preserve">
<g>
	<rect x="2.861" y="197.906" width="405.12" height="49"/>
	<g>
		<rect x="26.861" y="56.25" fill="#FFFFFF" width="57" height="167"/>
		<text transform="matrix(0 1 -1 0 61.3608 130.2651)" font-family="'SourceSansPro-Light'" font-size="10">Web </text>
		<text transform="matrix(0 1 -1 0 51.3608 116.6401)"><tspan x="0" y="0" font-family="'SourceSansPro-Light'" font-size="10">D</tspan><tspan x="6" y="0" font-family="'SourceSansPro-Light'" font-size="10">e</tspan><tspan x="10.81" y="0" font-family="'SourceSansPro-Light'" font-size="10">velope</tspan><tspan x="38.109" y="0" font-family="'SourceSansPro-Light'" font-size="10">r</tspan><tspan x="41.189" y="0" font-family="'SourceSansPro-Light'" font-size="10">s</tspan></text>
	</g>
	<g>
		<rect x="104.361" y="133.75" fill="#FFFFFF" width="93" height="89.5"/>
		<text transform="matrix(0 1 -1 0 147.8608 153)"><tspan x="0" y="0" font-family="'SourceSansPro-Light'" font-size="10">Adobe </tspan><tspan x="28.31" y="0" font-family="'SourceSansPro-Light'" font-size="10">T</tspan><tspan x="32.89" y="0" font-family="'SourceSansPro-Light'" font-size="10">ools</tspan></text>
	</g>
	<g>
		<rect x="217.861" y="84.25" fill="#FFFFFF" width="52.5" height="139"/>
		<text transform="matrix(0 1 -1 0 247.1108 129.6074)" font-family="'SourceSansPro-Light'" font-size="10">Application</text>
		<text transform="matrix(0 1 -1 0 235.1108 130.043)" font-family="'SourceSansPro-Light'" font-size="10">Developers</text>
	</g>
	<g>
		<rect x="290.861" y="13.358" fill="#FFFFFF" width="26.678" height="209.892"/>
		<text transform="matrix(0 1 -1 0 301.2007 93.9751)"><tspan x="0" y="0" font-family="'SourceSansPro-Light'" font-size="10">Adobe Se</tspan><tspan x="38.349" y="0" font-family="'SourceSansPro-Light'" font-size="10">r</tspan><tspan x="41.789" y="0" font-family="'SourceSansPro-Light'" font-size="10">vi</tspan><tspan x="48.419" y="0" font-family="'SourceSansPro-Light'" font-size="10">c</tspan><tspan x="52.759" y="0" font-family="'SourceSansPro-Light'" font-size="10">es</tspan></text>
	</g>
	<g>
		<rect x="339.861" y="56.617" fill="#FFFFFF" width="44.177" height="166.633"/>
		<text transform="matrix(0 1 -1 0 369.1108 123.6533)" font-family="'SourceSansPro-Light'" font-size="10">Adobe’s</text>
		<text transform="matrix(0 1 -1 0 357.1108 93.4487)" font-family="'SourceSansPro-Light'" font-size="10">Leadership on the Web</text>
	</g>
</g>
</svg>
