<?xml version="1.0" encoding="utf-8"?>
<!-- Generator: Adobe Illustrator 15.1.0, SVG Export Plug-In  -->
<!DOCTYPE svg PUBLIC "-//W3C//DTD SVG 1.1//EN" "http://www.w3.org/Graphics/SVG/1.1/DTD/svg11.dtd" [
	<!ENTITY ns_flows "http://ns.adobe.com/Flows/1.0/">
]>
<svg version="1.1"
	 xmlns="http://www.w3.org/2000/svg" xmlns:xlink="http://www.w3.org/1999/xlink" xmlns:a="http://ns.adobe.com/AdobeSVGViewerExtensions/3.0/"
	 x="0px" y="0px" preserveAspectRatio="xMaxYMin slice" viewBox="-1781.241 -29.342 1920 1080"
	 overflow="visible" enable-background="new -1781.241 -29.342 1920 1080" xml:space="preserve">
<defs>
</defs>
<path fill="#FF0000" d="M23.458,5.606h-5.699V0.475h17.293v5.131h-5.7v29.17h-5.894V5.606L23.458,5.606z"/>
<path fill="#FF0000" d="M39.043,34.774v-34.3h15.772v5.131h-9.881v8.836h7.604v5.131h-7.604v10.072h10.548v5.132H39.043V34.774z"/>
<path fill="#FF0000" d="M71.73,11.924v-2.66c0-2.898-1.33-4.133-2.851-4.133c-2.374,0-3.134,1.235-3.134,3.8v17.387
	c0,2.564,0.761,3.8,3.134,3.8c2.139,0,2.851-1.235,2.851-3.468v-4.133h5.891v3.943c0,4.845-2.85,8.789-8.742,8.789
	c-6.176,0-9.026-3.943-9.026-8.789V8.789C59.853,3.943,62.703,0,68.879,0c5.893,0,8.742,4.275,8.742,9.406v2.518H71.73z"/>
<path fill="#FF0000" d="M82.822,34.774v-34.3h5.891v13.967h6.271V0.475h5.891v34.3h-5.891V19.573h-6.271v15.201H82.822z"/>
<path fill="#FFFFFF" d="M9.563,45.416c-0.178-2.209-1.354-2.851-2.351-2.851c-1.427,0-2.21,0.927-2.21,2.529
	c0,4.382,8.978,6.484,8.978,13.465c0,4.24-2.851,6.59-6.981,6.59c-4.097,0-6.448-3.277-6.625-7.124l4.204-0.606
	c0.177,2.601,1.21,3.884,2.637,3.884c1.53,0,2.564-0.819,2.564-2.351c0-5.094-8.977-6.448-8.977-13.822
	c0-4.096,2.493-6.412,6.838-6.412c3.599,0,5.736,2.6,6.127,6.234L9.563,45.416z"/>
<path fill="#FFFFFF" d="M17.329,39.074h4.417v19.415c0,1.888,0.748,2.814,2.352,2.814s2.351-0.926,2.351-2.814V39.074h4.416v19.237
	c0,4.416-2.563,6.839-6.769,6.839c-4.202,0-6.767-2.423-6.767-6.839V39.074L17.329,39.074z"/>
<path fill="#FFFFFF" d="M52.847,39.074v25.72h-3.846V44.703h-0.07l-3.989,20.091h-2.14l-3.989-20.091h-0.071v20.091h-3.848V39.074
	h5.806l3.136,15.033h0.071l3.135-15.033H52.847z"/>
<path fill="#FFFFFF" d="M74.614,39.074v25.72h-3.846V44.703h-0.071l-3.989,20.091h-2.139l-3.99-20.091h-0.07v20.091H56.66V39.074
	h5.807l3.136,15.033h0.07l3.133-15.033H74.614z"/>
<path fill="#FFFFFF" d="M79.285,64.794v-25.72h4.418v25.72H79.285z"/>
<path fill="#FFFFFF" d="M91.147,42.922h-4.273v-3.848H99.84v3.848h-4.273v21.873h-4.418L91.147,42.922L91.147,42.922z"/>
<path fill="#FF0000" d="M15.21,35.18h-2.016c-4.677-3.199-7.253-4.944-9.456-4.944c-1.184,0-1.703,0.457-1.703,1.164
	c0,0.831,0.645,1.246,1.559,1.246h1.019v2.453H3.906C1.704,35.098,0,33.684,0,31.275c0-2.12,1.579-3.491,3.323-3.491
	c2.37,0,4.113,0.748,9.767,4.779v-4.551h2.12V35.18z"/>
<path fill="#FF0000" d="M4.113,25.675C1.288,25.675,0,24.594,0,22.018c0-2.576,1.288-3.656,4.113-3.656h7.189
	c2.826,0,4.114,1.081,4.114,3.656c0,2.576-1.288,3.657-4.114,3.657H4.113z M3.469,20.812c-0.976,0-1.434,0.437-1.434,1.206
	c0,0.769,0.458,1.206,1.434,1.206h8.479c0.976,0,1.433-0.437,1.433-1.206c0-0.769-0.457-1.206-1.433-1.206H3.469z"/>
<path fill="#FF0000" d="M3.323,13.859v2.037H1.932C1.351,14.752,0.727,13.692,0,12.841v-1.31h15.21v2.328H3.323L3.323,13.859z"/>
<path fill="#FF0000" d="M10.866,5.96h1.018c0.936,0,1.496-0.375,1.496-1.165c0-0.748-0.52-1.226-1.766-1.226h-1.144
	c-1.62,0-2.12,0.624-2.12,2.203H6.316c0-1.517-0.5-2.099-2.286-2.099c-1.414,0-1.995,0.27-1.995,1.039
	c0,0.728,0.354,1.164,1.538,1.164h0.623v2.329H3.489C1.453,8.205,0,6.936,0,4.692c0-2.224,1.849-3.345,3.842-3.345
	c1.747,0,2.723,0.292,3.45,1.621c0.789-1.517,1.684-1.85,3.721-1.85c2.99,0,4.404,1.185,4.404,3.74c0,2.141-1.081,3.429-3.657,3.429
	h-0.894V5.96z"/>
</svg>
