<?xml version="1.0" encoding="utf-8"?>
<!-- Generator: Adobe Illustrator 15.1.0, SVG Export Plug-In  -->
<!DOCTYPE svg PUBLIC "-//W3C//DTD SVG 1.1//EN" "http://www.w3.org/Graphics/SVG/1.1/DTD/svg11.dtd" [
	<!ENTITY ns_flows "http://ns.adobe.com/Flows/1.0/">
]>
<svg version="1.1"
	 xmlns="http://www.w3.org/2000/svg" xmlns:xlink="http://www.w3.org/1999/xlink" xmlns:a="http://ns.adobe.com/AdobeSVGViewerExtensions/3.0/"
	 x="0px" y="0px" preserveAspectRatio="xMaxYMin slice" viewBox="-1401.584 -46.863 1920 1080"
	 overflow="visible" enable-background="new -1401.584 -46.863 1920 1080" xml:space="preserve">
<defs>
</defs>
<path fill="#FF1D25" d="M48.16,11.091H36.881V0.94h34.214v10.151H59.815v57.712H48.16V11.091z"/>
<path fill="#FF1D25" d="M77.816,68.804V0.94h31.206v10.151H89.472v17.483h15.039v10.151H89.472v19.927h20.866v10.151H77.816z"/>
<path fill="#FF1D25" d="M141.264,23.592v-5.264c0-5.733-2.631-8.177-5.639-8.177c-4.7,0-6.204,2.444-6.204,7.52v34.402
	c0,5.076,1.504,7.52,6.204,7.52c4.229,0,5.639-2.444,5.639-6.861v-8.178h11.656v7.802c0,9.587-5.641,17.389-17.295,17.389
	c-12.22,0-17.859-7.802-17.859-17.389V17.389c0-9.588,5.64-17.389,17.859-17.389c11.654,0,17.295,8.459,17.295,18.611v4.981H141.264
	z"/>
<path fill="#FF1D25" d="M161.937,68.804V0.94h11.655v27.634h12.407V0.94h11.655v67.864h-11.655V38.726h-12.407v30.078H161.937z"/>
<path fill="#FFFFFF" d="M229.314,17.671c-0.471-5.828-3.572-7.52-6.204-7.52c-3.76,0-5.827,2.444-5.827,6.673
	c0,11.562,23.686,17.107,23.686,35.53c0,11.185-7.52,17.389-18.422,17.389c-10.81,0-17.014-8.647-17.483-18.799l11.091-1.598
	c0.471,6.861,3.196,10.245,6.956,10.245c4.042,0,6.768-2.162,6.768-6.204c0-13.441-23.687-17.013-23.687-36.47
	C206.191,6.11,212.771,0,224.238,0c9.493,0,15.133,6.862,16.167,16.449L229.314,17.671z"/>
<path fill="#FFFFFF" d="M248.584,0.94h11.655v51.227c0,4.982,1.974,7.426,6.204,7.426c4.229,0,6.203-2.444,6.203-7.426V0.94h11.655
	v50.757c0,11.655-6.768,18.047-17.858,18.047c-11.092,0-17.859-6.392-17.859-18.047V0.94z"/>
<path fill="#FFFFFF" d="M340.419,0.94v67.864h-10.151V15.791h-0.188l-10.527,53.013h-5.64l-10.527-53.013h-0.188v53.013h-10.151
	V0.94h15.321l8.271,39.666h0.188l8.271-39.666H340.419z"/>
<path fill="#FFFFFF" d="M396.339,0.94v67.864h-10.151V15.791H386l-10.527,53.013h-5.64l-10.527-53.013h-0.188v53.013h-10.151V0.94
	h15.321l8.271,39.666h0.188l8.271-39.666H396.339z"/>
<path fill="#FFFFFF" d="M405.891,68.804V0.94h11.655v67.864H405.891z"/>
<path fill="#FFFFFF" d="M436.168,11.091h-11.279V0.94h34.214v10.151h-11.279v57.712h-11.655V11.091z"/>
<path fill="#FF1D25" d="M30.749,69.122h-4.075c-9.451-6.469-14.66-9.997-19.113-9.997c-2.395,0-3.444,0.924-3.444,2.352
	c0,1.681,1.302,2.521,3.151,2.521h2.058v4.957H7.896C3.444,68.954,0,66.097,0,61.224c0-4.284,3.191-7.057,6.721-7.057
	c4.789,0,8.317,1.512,19.744,9.661v-9.199h4.284V69.122z"/>
<path fill="#FF1D25" d="M8.316,50.218C2.604,50.218,0,48.034,0,42.826c0-5.209,2.604-7.394,8.316-7.394h14.535
	c5.713,0,8.317,2.185,8.317,7.394c0,5.208-2.604,7.393-8.317,7.393H8.316z M7.015,40.389c-1.974,0-2.898,0.882-2.898,2.437
	c0,1.554,0.925,2.436,2.898,2.436h17.14c1.975,0,2.898-0.882,2.898-2.436c0-1.555-0.924-2.437-2.898-2.437H7.015z"/>
<path fill="#FF1D25" d="M6.721,26.668v4.117H3.906C2.73,28.475,1.47,26.333,0,24.61v-2.646h30.749v4.705H6.721z"/>
<path fill="#FF1D25" d="M21.969,11.096h2.059c1.891,0,3.025-0.757,3.025-2.353c0-1.513-1.051-2.479-3.57-2.479h-2.311
	c-3.277,0-4.285,1.26-4.285,4.452H12.77c0-3.066-1.008-4.242-4.621-4.242c-2.855,0-4.032,0.546-4.032,2.101
	c0,1.47,0.714,2.352,3.108,2.352h1.26v4.705H7.057C2.939,15.632,0,13.07,0,8.534C0,4.039,3.738,1.77,7.771,1.77
	c3.528,0,5.502,0.588,6.973,3.276c1.596-3.066,3.402-3.738,7.52-3.738c6.049,0,8.905,2.395,8.905,7.562
	c0,4.326-2.185,6.931-7.394,6.931h-1.807V11.096z"/>
</svg>
